<?xml version="1.0" encoding="UTF-8" standalone="no"?>
<svg
   xmlns:dc="http://purl.org/dc/elements/1.1/"
   xmlns:cc="http://creativecommons.org/ns#"
   xmlns:rdf="http://www.w3.org/1999/02/22-rdf-syntax-ns#"
   xmlns:svg="http://www.w3.org/2000/svg"
   xmlns="http://www.w3.org/2000/svg"
   viewBox="0 0 175 175"
   height="175"
   width="175"
   id="svg302"
   version="1.1">
  <metadata
     id="metadata308">
    <rdf:RDF>
      <cc:Work
         rdf:about="">
        <dc:format>image/svg+xml</dc:format>
        <dc:type
           rdf:resource="http://purl.org/dc/dcmitype/StillImage" />
        <dc:title></dc:title>
      </cc:Work>
    </rdf:RDF>
  </metadata>
  <defs
     id="defs306" />
  <path
     style="fill:#00000b;fill-opacity:1;stroke:none;stroke-width:1px;stroke-linecap:butt;stroke-linejoin:miter;stroke-opacity:1"
     d="m 17.128227,41.527893 c 0,0 1.311406,-14.862614 15.299749,-15.008326 11.074463,-0.115359 119.775194,-0.145712 119.775194,-0.145712 0,0 17.63114,0 17.48542,16.319733 -0.14183,15.884638 0,74.458792 0,74.458792 0,0 -1.60282,16.0283 -16.31973,15.88259 -27.97532,-0.27698 -74.604497,0.14572 -74.604497,0.14572 L 41.170691,157.806 c 0,0 -4.517069,2.91424 -4.662781,-1.74855 -0.145712,-4.66278 0.437135,-22.73105 0.437135,-22.73105 -16.596463,0.2142 -19.799703,-8.40334 -20.108242,-15.15404 0,-11.21982 0.291424,-76.644467 0.291424,-76.644467 z"
     id="path4969" />
  <path
     id="path314"
     d="m 5.9741882,34.096586 c 0,0 1.3114067,-14.862614 15.2997498,-15.008326 11.074463,-0.115359 119.775192,-0.145712 119.775192,-0.145712 0,0 17.63114,0 17.48542,16.319733 -0.14183,15.884638 0,74.458789 0,74.458789 0,0 -1.60282,16.0283 -16.31973,15.88259 -27.97532,-0.27698 -74.604495,0.14572 -74.604495,0.14572 l -37.593672,24.62531 c 0,0 -4.517069,2.91424 -4.662781,-1.74855 -0.145712,-4.66278 0.437135,-22.73105 0.437135,-22.73105 -16.5964632,0.2142 -19.7997036,-8.40334 -20.1082426,-15.15404 0,-11.219818 0.2914238,-76.644464 0.2914238,-76.644464 z"
     style="fill:#ffffff;stroke:#000000;stroke-width:1px;stroke-linecap:butt;stroke-linejoin:miter;stroke-opacity:1;fill-opacity:1" />
</svg>
