<?xml version="1.0" encoding="UTF-8" standalone="no"?>
<svg
   xmlns:dc="http://purl.org/dc/elements/1.1/"
   xmlns:cc="http://creativecommons.org/ns#"
   xmlns:rdf="http://www.w3.org/1999/02/22-rdf-syntax-ns#"
   xmlns:svg="http://www.w3.org/2000/svg"
   xmlns="http://www.w3.org/2000/svg"
   viewBox="0 0 32 32"
   height="32"
   width="32"
   id="svg64"
   version="1.1">
  <metadata
     id="metadata70">
    <rdf:RDF>
      <cc:Work
         rdf:about="">
        <dc:format>image/svg+xml</dc:format>
        <dc:type
           rdf:resource="http://purl.org/dc/dcmitype/StillImage" />
        <dc:title></dc:title>
      </cc:Work>
    </rdf:RDF>
  </metadata>
  <defs
     id="defs68" />
  <path
     id="path3777"
     d="m 12.440778,29.6291 c -1.2125,-1.303995 -2.892867,-3.441495 -4.0565314,-4.75 -1.1636644,-1.308505 -3.3011644,-3.187608 -4.75,-4.175785 C 0.83328218,18.79292 -0.19788766,14.816626 2.2,13.2 c 1.6191317,-1.091599 4.3742501,-0.277546 7.6724076,-0.09033 3.5888034,0.203714 6.6506024,-1.612409 8.5061864,0.215691 1.874738,1.846969 0.129417,5.061704 1.082312,8.88115 0.865896,3.470731 0.714596,7.211363 -0.295787,8.221745 -2.195506,2.195506 -4.156501,1.962451 -6.724341,-0.799157 z m 11.225889,-6.295767 c -1.372686,-1.372685 -0.591684,-4.272445 1.555839,-5.776629 5.234266,-3.666222 9.157523,-6.7e-4 4.389189,4.100879 -2.738493,2.355553 -4.709617,2.911162 -5.945028,1.67575 z m -1.523679,-8.2238 c -2.889337,-1.830765 1.360422,-7.8283623 5.907024,-8.3364612 3.822892,-0.4272217 3.780162,3.3505962 -0.07459,6.5941522 -3.428802,2.885147 -3.836559,3.006955 -5.832438,1.742309 z M 15.053051,9.5639223 C 12.965302,7.0483391 18.130413,0.49330214 21.664113,1.1738305 24.598835,1.7390064 24.369983,4.7838634 21.150828,8.0030177 17.782546,11.3713 16.768474,11.630881 15.053051,9.5639223 Z M 6,7.9545455 C 6,5.5194284 10.538282,0.67962561 12.278409,1.2590027 15.945428,2.4799403 12.674952,10 8.476947,10 6.6483189,10 6,9.4646204 6,7.9545455 Z"
     style="fill:#000000" />
</svg>
